#!OML:ASF F:\VICON\USERDATA\INSTALL\rory3\rory3.ASF
:FULLY-SPECIFIED
:DEGREES
76
root -0.4877807902240668 18.130067976622108 29.315634365678356 3.83651392701204 -1.614459660402503 2.908547273964223
lfemur 8.220076070798097 -4.761562229812282 -29.3076889599535
ltibia 29.05404793755037
lfoot 29.98166830630599 -14.214911330914079
ltoes 7.31722717339974
rfemur -38.226717533656554 -2.9710239028045238 16.49966544798847
rtibia 58.4818056708119
rfoot 9.671171416733927 -13.51761646028195
rtoes -9.235642696951018
lowerback 1.0 -0.3264593573878005 -3.117604065961155
upperback -0.8990369127931155 -1.034782002921236 1.326096695223242
thorax -7.248720546405431 -0.9222281043056552 2.7947450912225027
lowerneck -17.79702680138428 -3.7795836673399092 -2.3927910662458136
upperneck 11.343995764120825 -3.8537989885602135 3.0484815606434665
head 6.876972593063277 -1.6846214993590032 0.6827987938918932
lclavicle -2.7238556345554733e-14 1.3248203517216011e-14
lhumerus -42.103568537968044 -11.683971711891822 92.01017407371673
lradius 130.9298451178562
lwrist 35.98638518970035
lhand -28.056908287323466 -8.824271364085272
lfingers nan
lthumb -0.09815225913838521 23.921376669808357
rclavicle -1.941988724450059e-14 1.606199163354784e-14
rhumerus -67.46295903803525 1.1437356738466349 -89.76671065491466
rradius 88.3223102241244
rwrist -9.948183108102638
rhand -22.77941967227393 1.0
rfingers nan
rthumb 3.7400845007441554 14.034313964414892
77
root -0.4504682207344994 18.0924258040583 30.18457228014442 3.5945378911019428 -1.527539074489772 2.6534122374618097
lfemur 7.001534050876494 -4.496975038822737 -29.027693012259586
ltibia 33.197717493403815
lfoot 30.867366065665678 -14.495717253847157
ltoes 8.787358903448514
rfemur -37.98682135926154 -3.2870029705876482 16.92463028330387
rtibia 57.21699170316793
rfoot 10.024776058533444 -13.837873668709554
rtoes -9.795417501915455
lowerback 1.0 -0.28723294421777545 -2.736896685570345
upperback -0.5703897445394515 -1.0167719175260248 1.3519808750402322
thorax -7.037512257939657 -0.8199569416531421 2.529689042040678
lowerneck -18.03676915337701 -3.8311350669794058 -2.5140649174942746
upperneck 11.35724787385474 -3.985147777244252 3.1175021423296467
head 6.917426035376833 -1.722796355076597 0.7052100159214165
lclavicle -5.074106341334467e-14 8.748575174975406e-15
lhumerus -42.35691785952352 -11.365553118389716 92.10631094767851
lradius 128.37698938288707
lwrist 35.83926865600196
lhand -27.78293755227471 -9.25649997428783
lfingers nan
lthumb 0.18173288124955933 23.522277113993457
rclavicle -4.2398556165681776e-14 1.1760483040063854e-14
rhumerus -66.28024615409848 0.3718602362751593 -89.69751091645577
rradius 87.90537849723066
rwrist -9.754382214282058
rhand -22.780459169283386 1.0
rfingers nan
rthumb 3.713784386309814 13.907546063126697
78
root -0.41362553314027595 18.04024670300853 31.08412363853759 3.276582236266669 -1.4453047162635801 2.3780718570846173
lfemur 5.891168790136852 -4.136545742304758 -28.642824634272042
ltibia 37.536382527481074
lfoot 31.177814631876203 -14.88707118702382
ltoes 8.11683505300551
rfemur -37.689526776755834 -3.7800158469705374 17.593983014386154
rtibia 56.52095675320754
rfoot 10.032421310149179 -13.73179628318414
rtoes -8.210996212000968
lowerback 1.0 -0.26804005128208064 -2.2429538845696775
upperback -0.338065848618022 -1.0187922961228226 1.3430739619140835
thorax -7.022833900182803 -0.7114772647479345 2.224291429099947
lowerneck -17.658311083361234 -3.8427785205559983 -2.522506543772768
upperneck 11.360472253816482 -4.126981090342857 3.157671160495167
head 6.885093194209984 -1.7674117906234756 0.7096818316395423
lclavicle 3.425371650151655e-14 -1.2421135149591894e-14
lhumerus -43.00175342895418 -10.884954367319109 92.12031625017876
lradius 125.8184893489091
lwrist 35.75404829372844
lhand -28.201028742251676 -8.658777452297858
lfingers nan
lthumb -0.20816557234515054 24.182096954486354
rclavicle 4.2111959009743e-14 -9.75219891217144e-15
rhumerus -65.32652289294347 -0.1842759273694412 -89.76609508679246
rradius 87.45425693055417
rwrist -9.455452797562334
rhand -22.624842294618162 1.0
rfingers nan
rthumb 3.8515973994577695 13.981101670796733
79
root -0.39810428034113576 17.983057663468756 31.974682818442812 3.0692466034246344 -1.435744539027973 1.7615477724506163
lfemur 4.4292490808144365 -3.6804903695324542 -27.799888554560113
ltibia 42.02975354328693
lfoot 31.8799396718425 -14.508012450170344
ltoes 9.256791190854663
rfemur -37.719653211294684 -4.368295899687821 18.769139397965688
rtibia 56.51124852514495
rfoot 10.290264034494005 -12.400061173593418
rtoes -8.930046208753048
lowerback 1.0 -0.20831689281721477 -1.5888825429759974
upperback -0.151553802562858 -0.9337496565166066 1.4719362996186847
thorax -7.165248109111435 -0.5832883303264059 1.9637020561816947
lowerneck -17.646272347513626 -3.909344556895027 -2.3551218472679047
upperneck 11.166174585241516 -4.35062679953762 3.0998937672935325
head 6.829862495358844 -1.8576517533607089 0.6651375983910586
lclavicle 1.0947437172188451e-14 9.044124132504786e-15
lhumerus -43.52189377663045 -10.365481929880563 92.04068715057316
lradius 123.23292302890695
lwrist 35.45289573550077
lhand -28.196281841865847 -7.00569092053159
lfingers nan
lthumb -0.1903656407533152 25.885514394416532
rclavicle 1.8556696668190995e-14 1.182976999380122e-14
rhumerus -64.04785795044775 -0.5494143961010742 -89.85977682634862
rradius 86.91480474389867
rwrist -9.376156602114076
rhand -22.790968578599074 1.0
rfingers nan
rthumb 3.6782102671086476 14.44226922385523
